<?xml version="1.0" encoding="UTF-8"?>
<svg version="1.1" xmlns="http://www.w3.org/2000/svg" width="1000" height="1000">
<path d="M0 0 C78.69349744 -1.03470766 161.22055784 9.16964753 233 43 C233.8343457 43.38462402 234.66869141 43.76924805 235.52832031 44.16552734 C257.39749407 54.29794742 277.54182388 67.42184854 295.3125 83.75 C297.88610375 86.10034159 300.45429906 88.40052359 303.1875 90.5625 C337.60905889 120.39451771 351.84778591 166.3379611 356 210 C356.268125 209.04222656 356.53625 208.08445312 356.8125 207.09765625 C366.43124531 173.92288597 387.14801743 148.47783643 417.46240234 131.73266602 C452.55250042 113.01644554 492.79893985 104.96106869 532.39453125 104.796875 C534.10390366 104.78655746 534.10390366 104.78655746 535.84780884 104.77603149 C539.50273885 104.75897169 543.15753231 104.75257931 546.8125 104.75 C548.05468292 104.74832825 549.29686584 104.74665649 550.57669067 104.74493408 C565.57686718 104.74372337 580.50084674 104.9085993 595.4375 106.375 C596.73727783 106.50100586 598.03705566 106.62701172 599.3762207 106.75683594 C605.69868699 107.46527016 605.69868699 107.46527016 608 108 C608.33 108.66 608.66 109.32 609 110 C608.31005859 111.8815918 608.31005859 111.8815918 607.1484375 114.19921875 C606.71619873 115.06675781 606.28395996 115.93429687 605.83862305 116.828125 C605.11412964 118.24351562 605.11412964 118.24351562 604.375 119.6875 C603.87718018 120.66847656 603.37936035 121.64945313 602.86645508 122.66015625 C590.58462422 146.62544793 576.94939975 169.95337111 560.37744141 191.22119141 C559.03847612 192.95031248 557.72472095 194.69567075 556.41796875 196.44921875 C551.45291941 203.07963041 546.17529457 209.26899776 540.51171875 215.30078125 C538.47639148 217.48804586 536.53878948 219.70817803 534.625 222 C513.4298613 246.24443932 484.04696591 264.67878274 453 273 C451.35837891 273.47953125 451.35837891 273.47953125 449.68359375 273.96875 C431.41115406 278.54215321 410.19730961 277.5445133 392 273 C391.3282373 272.83951172 390.65647461 272.67902344 389.96435547 272.51367188 C381.60409542 270.49438103 381.60409542 270.49438103 378 269 C377 266 377 266 378.046875 263.57421875 C391.00835952 241.60509705 409.43733314 222.97106447 430 208 C430.98742187 207.24074219 431.97484375 206.48148438 432.9921875 205.69921875 C453.17262286 190.20257144 475.428282 177.65832959 498 166 C451.56327662 171.68612939 410.25982656 194.13586812 374 223 C372.0641035 224.52654605 370.1261501 226.05043933 368.1875 227.57348633 C367.03160051 228.48322781 365.87773242 229.39556045 364.7265625 230.3112793 C360.90419775 233.3418516 356.98486381 236.18951671 353 239 C352.25363281 238.18144531 351.50726562 237.36289062 350.73828125 236.51953125 C341.74742603 226.75736469 332.43911251 217.32704678 323.0625 207.9375 C322.42962067 207.30212311 321.79674133 206.66674622 321.14468384 206.01211548 C314.6092245 199.45552391 308.09448735 192.95814531 301 187 C299.88142186 186.02763912 298.76420816 185.05370615 297.6484375 184.078125 C284.00262147 172.25656081 269.76374787 161.39004599 255 151 C254.36481445 150.55269531 253.72962891 150.10539063 253.07519531 149.64453125 C226.117041 130.81293501 186.18496566 105 152 105 C152.95777344 105.65484375 153.91554688 106.3096875 154.90234375 106.984375 C172.49875751 119.03484603 189.86014868 131.1950103 206.31640625 144.78515625 C208.12919392 146.28129979 209.94974557 147.76807835 211.77734375 149.24609375 C218.03532626 154.31040779 224.05968002 159.56833127 230 165 C230.84304688 165.75023437 231.68609375 166.50046875 232.5546875 167.2734375 C239.46551177 173.47947516 246.0944139 179.95818386 252.6875 186.5 C253.56639893 187.36592773 254.44529785 188.23185547 255.35083008 189.12402344 C261.33770261 195.10245821 266.71733198 201.39783061 272 208 C273.58037469 209.83588437 275.16305074 211.66979575 276.75 213.5 C314 258.25775194 314 258.25775194 314 278 C267.54012552 289.36864792 218.97450357 282.49421732 177 260 C176.34435059 259.65743164 175.68870117 259.31486328 175.01318359 258.96191406 C164.19547666 253.2983866 154.56859367 246.56500417 145 239 C143.55367188 237.87464844 143.55367188 237.87464844 142.078125 236.7265625 C129.35076494 226.59739133 117.7367326 215.20015373 107 203 C106.54173828 202.48115234 106.08347656 201.96230469 105.61132812 201.42773438 C79.25338417 171.40584927 58.77093225 136.62375819 41 101 C40.16855469 99.34097656 40.16855469 99.34097656 39.3203125 97.6484375 C24.88710421 68.71425937 13.17757405 38.65665208 2.18359375 8.27734375 C1.7652124 7.12355225 1.34683105 5.96976074 0.91577148 4.78100586 C0 2 0 2 0 0 Z " fill="#5EB446" transform="translate(196,586)"/>
<path d="M0 0 C0 206.91 0 413.82 0 627 C-2.67404539 624.32595461 -3.63851802 623.0119497 -5.09375 619.7109375 C-5.47845459 618.86023682 -5.86315918 618.00953613 -6.25952148 617.13305664 C-6.66887939 616.22289795 -7.0782373 615.31273926 -7.5 614.375 C-17.57635195 592.65933451 -32.60623694 570.79911568 -51.06972176 555.25785393 C-53.51812205 552.39395063 -53.48527563 550.99431572 -53.44914913 547.26545048 C-53.4468945 545.49944826 -53.4468945 545.49944826 -53.44459432 543.69776922 C-53.42250939 542.40314762 -53.40042446 541.10852602 -53.37767029 539.77467346 C-53.36850921 538.38631428 -53.36117096 536.99794207 -53.35550171 535.60956424 C-53.33927483 532.58789689 -53.31025568 529.56670881 -53.27157402 526.54524612 C-53.20873005 521.6290325 -53.17345433 516.71284053 -53.14175415 511.79634094 C-53.0996751 505.58287009 -53.05019643 499.36953087 -52.9921471 493.15618854 C-52.87823907 480.93932193 -52.81495057 468.72265365 -52.77027893 456.50535583 C-52.76299407 454.58175969 -52.75568338 452.65816365 -52.74834722 450.7345677 C-52.73728049 447.81908228 -52.72625638 444.90359672 -52.71536202 441.98811065 C-52.67413673 430.99310642 -52.62791909 419.99813026 -52.57543945 409.00317383 C-52.57065954 407.99801808 -52.56587963 406.99286233 -52.56095488 405.95724731 C-52.48157315 389.68300934 -52.33966109 373.40981933 -52.17813873 357.13621641 C-52.01407208 340.42198502 -51.93047073 323.70864199 -51.91779 306.99360794 C-51.90717962 296.68690608 -51.83231534 286.38475455 -51.6742636 276.07924109 C-51.57158013 269.0096246 -51.54615885 261.94234246 -51.58069365 254.87207568 C-51.59825762 250.7946539 -51.58215824 246.72489538 -51.47314262 242.64872742 C-50.47273246 226.65868184 -50.47273246 226.65868184 -56.06638837 212.44196582 C-61.02225223 208.17610532 -66.47732229 205.44692147 -72.51713097 203.03229797 C-75.88541825 201.63187125 -78.77625716 199.82245521 -81.8359375 197.84375 C-84.63344907 196.15294631 -87.43277542 194.4652716 -90.234375 192.78125 C-91.15476562 192.224375 -92.07515625 191.6675 -93.0234375 191.09375 C-93.81669434 190.61615234 -94.60995117 190.13855469 -95.42724609 189.64648438 C-96.70075928 188.83147461 -96.70075928 188.83147461 -98 188 C-98.57550598 187.71817651 -99.15101196 187.43635302 -99.74395752 187.14598942 C-102.81131617 185.4253149 -104.66966442 184.11931031 -105.68988991 180.6623745 C-105.99981931 177.62832402 -106.08303044 174.65721156 -106.09619141 171.60717773 C-106.14350403 169.8793531 -106.14350403 169.8793531 -106.19177246 168.11662292 C-106.28381102 164.30524447 -106.32177762 160.49593819 -106.3515625 156.68359375 C-106.37786092 154.70027415 -106.40416567 152.7169545 -106.43135583 150.73364693 C-106.51423557 144.49319605 -106.55361453 138.2533898 -106.57177734 132.01245117 C-106.5917138 125.59818044 -106.70927762 119.1906453 -106.87156928 112.7785458 C-107.00642344 107.25538814 -107.06698743 101.73445286 -107.07237375 96.20966488 C-107.07707978 92.91622616 -107.12063953 89.63151401 -107.22282791 86.33944511 C-107.79484531 66.39844207 -107.79484531 66.39844207 -103.14748573 60.74740219 C-98.66631925 56.90590984 -93.71522028 54.35380201 -88.31785679 52.03548336 C-84.9750397 50.54210746 -82.01433004 48.64611765 -78.93359375 46.671875 C-76.76916567 45.36303338 -74.60379476 44.05574971 -72.4375 42.75 C-70.02527444 41.29163066 -67.61407693 39.83156749 -65.203125 38.37109375 C-64.60219528 38.0071904 -64.00126556 37.64328705 -63.38212585 37.26835632 C-56.05867302 32.82955766 -48.77169123 28.33178474 -41.4831543 23.8359375 C-33.13848111 18.69167077 -24.76932419 13.58865325 -16.3815918 8.51489258 C-12.70950135 6.28807481 -9.06475284 4.0740477 -5.546875 1.609375 C-3 0 -3 0 0 0 Z " fill="#005697" transform="translate(558,105)"/>
<path d="M0 0 C3.4814626 1.35859477 6.59359889 2.84428689 9.78125 4.80078125 C10.69455078 5.35894531 11.60785156 5.91710937 12.54882812 6.4921875 C13.52271484 7.09289062 14.49660156 7.69359375 15.5 8.3125 C16.52029297 8.93769531 17.54058594 9.56289063 18.59179688 10.20703125 C26.1032114 14.81514703 33.5949693 19.45522631 41.08203125 24.1027832 C47.53332172 28.10400993 54.01137184 32.05965883 60.5 36 C68.30848744 40.74376588 76.10243433 45.51006939 83.875 50.3125 C84.77927734 50.87001953 85.68355469 51.42753906 86.61523438 52.00195312 C87.44087891 52.51306641 88.26652344 53.02417969 89.1171875 53.55078125 C89.84534668 54.00106689 90.57350586 54.45135254 91.32373047 54.9152832 C93 56 93 56 94 57 C94.09636838 58.78427187 94.12187453 60.57239653 94.12025452 62.35926819 C94.12231651 64.10306007 94.12231651 64.10306007 94.12442017 65.88208008 C94.12082489 67.16888672 94.11722961 68.45569336 94.11352539 69.78149414 C94.11324352 71.14123024 94.11340125 72.5009665 94.1139679 73.86070251 C94.11425587 77.56301778 94.10835912 81.26530092 94.10139394 84.96760869 C94.09516043 88.83268781 94.0945566 92.69776758 94.09336853 96.56285095 C94.09025521 103.88684682 94.0820418 111.21082784 94.07201904 118.53481716 C94.06085794 126.87083448 94.05534746 135.20685249 94.05032361 143.54287541 C94.03985919 160.69525888 94.02225973 177.84762787 94 195 C90.56500923 193.65595352 87.43667983 192.19472238 84.26171875 190.3125 C83.36662598 189.78333984 82.4715332 189.25417969 81.54931641 188.70898438 C80.60491699 188.14501953 79.66051758 187.58105469 78.6875 187 C77.71216309 186.42056641 76.73682617 185.84113281 75.73193359 185.24414062 C67.41061337 180.28327485 59.18702603 175.17843072 51 170 C47.04 167.525 47.04 167.525 43 165 C42.67 237.6 42.34 310.2 42 385 C30.92352017 387.21529597 30.92352017 387.21529597 25.9609375 388.04296875 C-5.56596305 393.46636051 -38.08754428 402.23904585 -64.53125 421.00390625 C-66 422 -66 422 -67 422 C-67.51450418 394.58419638 -67.90214884 367.16911849 -68.13986778 339.74945545 C-68.25319431 327.0169546 -68.4076036 314.28745718 -68.65966797 301.55688477 C-68.87933402 290.45728162 -69.02096475 279.35985329 -69.06994689 268.25813693 C-69.09857471 262.38136013 -69.16553074 256.51080295 -69.32606125 250.63602638 C-70.26515334 214.90758003 -70.26515334 214.90758003 -64.8857193 206.82220078 C-59.83639527 202.08233397 -54.3375222 199.80405078 -47.75850296 197.91191673 C-43.24548011 196.41998393 -39.57878595 193.8009356 -35.6875 191.125 C-30.49749309 187.59811452 -25.55009064 184.74089664 -19.6787262 182.47947693 C-12.44567999 179.44564222 -6.01023463 176.18785015 -1 170 C3.2769053 158.74873706 2.12689596 145.98025398 1.73677754 134.15114522 C1.60766372 129.42701231 1.62190249 124.70323274 1.620224 119.97764587 C1.59562921 111.05021996 1.44418849 102.129746 1.24585861 93.20467323 C1.02615997 83.03574165 0.94981697 72.86726353 0.88484776 62.69635022 C0.74815219 41.79421769 0.43358898 20.89794559 0 0 Z " fill="#005697" transform="translate(657,290)"/>
<path d="M0 0 C0 113.19 0 226.38 0 343 C-5.61 341.35 -11.22 339.7 -17 338 C-40.42105933 331.51530187 -63.7244449 325.78914836 -87.7109375 321.8515625 C-89.39350953 321.57354272 -91.07604564 321.29530539 -92.75854492 321.0168457 C-96.83862046 320.3420576 -100.9191694 319.67020606 -105 319 C-105.47959898 286.60896791 -105.85096839 254.21896299 -106.07237192 221.82518809 C-106.09863514 217.99649 -106.12581607 214.16779893 -106.15356445 210.33911133 C-106.15907297 209.57692398 -106.16458149 208.81473664 -106.17025694 208.0294527 C-106.26151151 195.7054716 -106.42700939 183.3835583 -106.62020872 171.0608019 C-106.81695364 158.40585948 -106.93330715 145.75199584 -106.97585839 133.09558696 C-107.00460644 125.2913369 -107.095177 117.49293036 -107.2662458 109.69048121 C-107.39094763 103.69553618 -107.40347877 97.7055583 -107.37526131 91.70916939 C-107.3810198 89.25834017 -107.42255848 86.80728177 -107.50331497 84.35777664 C-108.06816624 66.33438344 -108.06816624 66.33438344 -102.92397094 60.74383903 C-97.85875353 56.68323644 -92.32594069 53.78614387 -86.42941797 51.12136304 C-83.38210847 49.71479559 -80.65041963 48.04717548 -77.83203125 46.23046875 C-76.15926898 45.21546189 -74.48609965 44.20112555 -72.8125 43.1875 C-64.52329964 38.15456718 -56.25543009 33.08812551 -48 28 C-39.51296357 22.77024294 -31.01569313 17.55798077 -22.5 12.375 C-21.58734375 11.81941406 -20.6746875 11.26382812 -19.734375 10.69140625 C-18.00893416 9.64235864 -16.28241597 8.59508041 -14.5546875 7.54980469 C-12.76407363 6.46352632 -10.97798005 5.36977809 -9.1953125 4.27050781 C-8.29554688 3.71975586 -7.39578125 3.16900391 -6.46875 2.6015625 C-5.65857422 2.10221191 -4.84839844 1.60286133 -4.01367188 1.08837891 C-2 0 -2 0 0 0 Z " fill="#5EB446" transform="translate(402,256)"/>
</svg>
